<svg width="355" height="162" viewBox="0 0 355 162" fill="none" xmlns="http://www.w3.org/2000/svg">
<path d="M3.168 77.136C3.168 62.544 12.672 52.368 26.208 52.368C32.736 52.368 37.92 54.864 40.512 58.8L41.28 54H55.2V98.928C55.2 116.112 45.312 126.48 28.896 126.48C14.208 126.48 4.32 118.128 2.976 104.496H17.952C18.24 109.872 22.272 113.04 28.8 113.04C35.904 113.04 40.416 108.816 40.416 102V95.76C37.536 99.216 32.16 101.424 25.92 101.424C12.48 101.424 3.168 91.536 3.168 77.136ZM18.048 76.752C18.048 83.664 22.656 88.56 29.184 88.56C35.904 88.56 40.416 83.856 40.416 76.752C40.416 69.744 35.904 65.232 29.088 65.232C22.56 65.232 18.048 69.936 18.048 76.752ZM99.342 54V67.92H94.638C86.19 67.92 81.102 71.664 81.102 81.168V102H66.318V54.096H80.238L81.006 61.2C83.022 56.496 87.246 53.328 93.678 53.328C95.406 53.328 97.326 53.52 99.342 54ZM102.82 77.904C102.82 62.736 113.956 52.56 129.316 52.56C144.58 52.56 155.716 62.736 155.716 77.904C155.716 93.072 144.58 103.152 129.316 103.152C113.956 103.152 102.82 93.072 102.82 77.904ZM117.7 77.808C117.7 85.104 122.404 89.904 129.316 89.904C136.132 89.904 140.836 85.104 140.836 77.808C140.836 70.608 136.132 65.808 129.316 65.808C122.404 65.808 117.7 70.608 117.7 77.808ZM195.034 54H209.818V102H195.898L194.938 96.624C191.962 100.56 186.01 103.248 180.25 103.248C169.306 103.248 162.586 95.952 162.586 84.144V54H177.37V78.768C177.37 86.64 180.058 90.096 186.106 90.096C192.442 90.096 195.034 86.832 195.034 78.96V54ZM220.912 125.04V54H234.832L235.6 59.856C238.288 55.44 244.336 52.464 251.152 52.464C264.496 52.464 273.808 61.776 273.808 77.232C273.808 92.4 265.552 103.344 251.248 103.344C244.624 103.344 238.48 100.848 235.696 97.2V125.04H220.912ZM235.792 78C235.792 85.2 240.592 90 247.504 90C254.512 90 258.928 85.104 258.928 78C258.928 70.896 254.512 66 247.504 66C240.592 66 235.792 70.8 235.792 78ZM300.949 30.96H353.653V45.36L329.173 102H313.045L338.005 45.36H300.949V30.96Z" fill="white"/>
<path d="M288.628 103.248C283.732 103.248 279.796 99.312 279.796 94.608C279.796 89.808 283.732 85.872 288.628 85.872C293.332 85.872 297.46 89.808 297.46 94.608C297.46 99.312 293.332 103.248 288.628 103.248Z" fill="#6060FF"/>
<path d="M124.36 159L121.78 150.324H123.004L124.588 155.628C124.708 156.084 124.828 156.54 124.948 157.2C125.092 156.504 125.224 156.084 125.356 155.628L127 150.324H128.272L129.904 155.628C130.048 156.096 130.168 156.552 130.3 157.2C130.444 156.468 130.564 156.024 130.684 155.64L132.28 150.324H133.48L130.864 159H129.736L127.636 152.136L125.512 159H124.36ZM139.958 159H134.666V150.324H139.958V151.404H135.842V154.116H139.55V155.16H135.842V157.908H139.958V159ZM141.662 159V150.324H144.974C146.666 150.324 147.698 151.188 147.698 152.616C147.698 153.612 147.266 154.284 146.402 154.644C147.362 154.956 147.854 155.652 147.854 156.684C147.854 158.124 146.81 159 145.094 159H141.662ZM144.902 151.368H142.838V154.152H144.974C145.946 154.152 146.498 153.624 146.498 152.724C146.498 151.86 145.922 151.368 144.902 151.368ZM145.07 155.172H142.838V157.956H145.07C146.078 157.956 146.642 157.44 146.642 156.54C146.642 155.676 146.066 155.172 145.07 155.172ZM155.476 159H152.608V150.324H155.428C158.02 150.324 159.772 152.076 159.772 154.668C159.772 157.248 158.044 159 155.476 159ZM155.344 151.404H153.784V157.908H155.392C157.324 157.908 158.548 156.66 158.548 154.668C158.548 152.652 157.324 151.404 155.344 151.404ZM166.56 159H161.268V150.324H166.56V151.404H162.444V154.116H166.152V155.16H162.444V157.908H166.56V159ZM167.76 152.664C167.76 151.176 168.96 150.168 170.748 150.168C172.404 150.168 173.472 151.092 173.568 152.592H172.38C172.32 151.728 171.708 151.224 170.736 151.224C169.644 151.224 168.936 151.776 168.936 152.628C168.936 153.324 169.332 153.744 170.148 153.936L171.576 154.272C172.992 154.596 173.712 155.364 173.712 156.588C173.712 158.148 172.5 159.144 170.652 159.144C168.888 159.144 167.712 158.22 167.64 156.732H168.84C168.864 157.56 169.56 158.088 170.652 158.088C171.804 158.088 172.536 157.548 172.536 156.684C172.536 156 172.164 155.568 171.336 155.376L169.908 155.052C168.492 154.728 167.76 153.912 167.76 152.664ZM176.366 150.324V159H175.19V150.324H176.366ZM182.109 151.284C180.237 151.284 179.109 152.664 179.109 154.716C179.109 156.816 180.333 158.028 182.121 158.028C183.597 158.028 184.785 157.272 184.785 155.52V155.268H181.881V154.224H185.889V159.012H184.905L184.821 157.836C184.353 158.592 183.297 159.144 182.025 159.144C179.565 159.144 177.873 157.368 177.873 154.692C177.873 152.052 179.577 150.18 182.133 150.18C184.029 150.18 185.505 151.272 185.793 152.94H184.545C184.221 151.836 183.261 151.284 182.109 151.284ZM188.741 159H187.565V150.324H188.741L193.181 157.032V150.324H194.357V159H193.181L188.741 152.292V159ZM199.406 156.324V155.316H203.066V156.324H199.406ZM212.692 155.316H209.284V159H208.108V150.324H213.34V151.404H209.284V154.248H212.692V155.316ZM215.94 150.324V159H214.764V150.324H215.94ZM218.323 159H217.099L220.267 150.324H221.575L224.755 159H223.519L222.739 156.84H219.091L218.323 159ZM220.771 152.196L219.451 155.82H222.391L221.059 152.196C220.999 152.028 220.939 151.824 220.915 151.692C220.891 151.812 220.831 152.016 220.771 152.196ZM229.28 155.904H227.084V159H225.908V150.324H229.28C230.984 150.324 232.076 151.44 232.076 153.108C232.076 154.728 230.972 155.904 229.28 155.904ZM229.076 151.38H227.084V154.848H229.028C230.192 154.848 230.84 154.164 230.84 153.096C230.84 152.004 230.18 151.38 229.076 151.38Z" fill="white"/>
</svg>
